<svg preserveAspectRatio="none" width="100%" height="100%" overflow="visible" style="display: block;" viewBox="0 0 30 31" fill="none" xmlns="http://www.w3.org/2000/svg">
<g id="arrow-small-left 1">
<path id="Vector" d="M23.75 14.2083H11.25L15.3625 9.95875C15.4797 9.83867 15.5727 9.69581 15.6361 9.53841C15.6996 9.38101 15.7322 9.21218 15.7322 9.04167C15.7322 8.87115 15.6996 8.70232 15.6361 8.54492C15.5727 8.38752 15.4797 8.24466 15.3625 8.12458C15.1283 7.88401 14.8115 7.74898 14.4813 7.74898C14.151 7.74898 13.8342 7.88401 13.6 8.12458L8.2375 13.6788C7.76802 14.161 7.50279 14.816 7.5 15.5C7.50608 16.1796 7.77106 16.8293 8.2375 17.3083L13.6 22.8625C13.7165 22.9821 13.8547 23.0768 14.0067 23.1412C14.1587 23.2056 14.3214 23.2384 14.4857 23.2378C14.6499 23.2372 14.8124 23.2032 14.964 23.1377C15.1155 23.0722 15.253 22.9765 15.3688 22.856C15.4845 22.7356 15.5761 22.5928 15.6384 22.4358C15.7007 22.2787 15.7325 22.1106 15.7319 21.9408C15.7314 21.7711 15.6984 21.6032 15.6351 21.4466C15.5717 21.2901 15.479 21.1479 15.3625 21.0283L11.25 16.7917H23.75C24.0815 16.7917 24.3995 16.6556 24.6339 16.4133C24.8683 16.1711 25 15.8426 25 15.5C25 15.1574 24.8683 14.8289 24.6339 14.5867C24.3995 14.3444 24.0815 14.2083 23.75 14.2083Z" fill="var(--fill-0, white)"/>
</g>
</svg>
