<svg preserveAspectRatio="none" width="100%" height="100%" overflow="visible" style="display: block;" viewBox="0 0 19 19" fill="none" xmlns="http://www.w3.org/2000/svg">
<g id="bars-sort 1" clip-path="url(#clip0_0_36)">
<path id="Vector" d="M19 2.375C19 2.81042 18.6438 3.16667 18.2083 3.16667H0.791666C0.35625 3.16667 -2.83122e-07 2.81042 -2.83122e-07 2.375C-2.83122e-07 1.93958 0.35625 1.58333 0.791666 1.58333H18.2083C18.6438 1.58333 19 1.93958 19 2.375ZM5.54167 15.8333H0.791666C0.35625 15.8333 -2.83122e-07 16.1896 -2.83122e-07 16.625C-2.83122e-07 17.0604 0.35625 17.4167 0.791666 17.4167H5.54167C5.97708 17.4167 6.33333 17.0604 6.33333 16.625C6.33333 16.1896 5.97708 15.8333 5.54167 15.8333ZM11.875 8.70833H0.791666C0.35625 8.70833 -2.83122e-07 9.06458 -2.83122e-07 9.5C-2.83122e-07 9.93542 0.35625 10.2917 0.791666 10.2917H11.875C12.3104 10.2917 12.6667 9.93542 12.6667 9.5C12.6667 9.06458 12.3104 8.70833 11.875 8.70833Z" fill="var(--fill-0, #121212)"/>
</g>
<defs>
<clipPath id="clip0_0_36">
<rect width="19" height="19" fill="white"/>
</clipPath>
</defs>
</svg>
