<svg preserveAspectRatio="none" width="100%" height="100%" overflow="visible" style="display: block;" viewBox="0 0 23.1111 24.889" fill="none" xmlns="http://www.w3.org/2000/svg">
<path id="icon" fill-rule="evenodd" clip-rule="evenodd" d="M5.62715 12.1283L6.72794 6.62437C7.18818 4.32313 9.20875 2.66667 11.5556 2.66667C13.9024 2.66667 15.9229 4.32313 16.3832 6.62437L17.484 12.1283C17.8126 13.7713 18.6201 15.2803 19.8049 16.465L20.1494 16.8096C20.3383 16.9984 20.4444 17.2546 20.4444 17.5218C20.4444 17.9908 20.1207 18.3978 19.6637 18.5033L18.2038 18.8402C13.8291 19.8497 9.282 19.8497 4.90736 18.8402L3.44744 18.5033C2.99041 18.3978 2.66667 17.9908 2.66667 17.5218C2.66667 17.2546 2.77279 16.9984 2.96169 16.8095L3.30621 16.465C4.49098 15.2803 5.29855 13.7713 5.62715 12.1283ZM3.01227 11.6053L4.11306 6.10139C4.82259 2.55369 7.9376 0 11.5556 0C15.1735 0 18.2885 2.55369 18.9981 6.10139L20.0988 11.6053C20.3242 12.7321 20.878 13.7669 21.6905 14.5794L22.035 14.9239C22.724 15.6129 23.1111 16.5474 23.1111 17.5218C23.1111 19.2326 21.9303 20.7169 20.2633 21.1016L18.8034 21.4385C17.5574 21.7261 16.2985 21.9385 15.0335 22.0758C14.6921 23.6832 13.2647 24.889 11.5556 24.889C9.84645 24.889 8.419 23.6832 8.07761 22.0758C6.81262 21.9385 5.55376 21.7261 4.30773 21.4385L2.84781 21.1016C1.18083 20.7169 0 19.2326 0 17.5218C0 16.5474 0.387074 15.6129 1.07607 14.9239L1.42059 14.5794C2.23309 13.7669 2.78692 12.7321 3.01227 11.6053Z" fill="var(--fill-0, white)"/>
</svg>
