<svg preserveAspectRatio="none" width="100%" height="100%" overflow="visible" style="display: block;" viewBox="0 0 26 26" fill="none" xmlns="http://www.w3.org/2000/svg">
<g id="diary-bookmark-down 1">
<path id="Vector" d="M18.4167 0H7.58333C4.59658 0 2.16667 2.42992 2.16667 5.41667V21.6667C2.16667 22.8984 2.69317 24.076 3.61075 24.8961C4.05708 25.2948 4.74175 25.259 5.14042 24.8116C5.53908 24.3663 5.50117 23.6806 5.05592 23.2819C4.59658 22.8713 4.33333 22.282 4.33333 21.6667C4.33333 20.4718 5.30508 19.5 6.5 19.5H6.5065L6.54117 25.2926C6.54117 25.9675 7.39808 26.2568 7.80758 25.7205L9.2495 23.8323L10.6914 25.7205C11.1009 26.2568 11.9578 25.9675 11.9578 25.2926L11.9232 19.5H21.6667V20.5833C21.6667 22.3752 20.2085 23.8333 18.4167 23.8333H15.1667C14.5676 23.8333 14.0833 24.3176 14.0833 24.9167C14.0833 25.5158 14.5676 26 15.1667 26H18.4167C21.4034 26 23.8333 23.5701 23.8333 20.5833V5.41667C23.8333 2.42992 21.4034 0 18.4167 0ZM4.33333 17.9151V5.41667C4.33333 4.004 5.239 2.80042 6.5 2.353V17.3333C5.71133 17.3333 4.97142 17.5457 4.33333 17.9151ZM8.66667 17.3333V2.16667H18.4167C20.2085 2.16667 21.6667 3.62483 21.6667 5.41667V17.3333H8.66667Z" fill="var(--fill-0, #C0C0C0)"/>
</g>
</svg>
