<svg preserveAspectRatio="none" width="100%" height="100%" overflow="visible" style="display: block;" viewBox="0 0 35.8396 35.8396" fill="none" xmlns="http://www.w3.org/2000/svg">
<g id="heart (2) 1" clip-path="url(#clip0_0_47)">
<path id="Vector" d="M26.133 2.86269C24.4515 2.88884 22.8066 3.35825 21.3645 4.2235C19.9224 5.08876 18.7342 6.31922 17.9198 7.79063C17.1054 6.31922 15.9172 5.08876 14.4751 4.2235C13.033 3.35825 11.3881 2.88884 9.70656 2.86269C7.02597 2.97915 4.50042 4.1518 2.68167 6.12444C0.862927 8.09708 -0.101174 10.7094 -5.33953e-07 13.3906C-5.33953e-07 20.1807 7.14701 27.5965 13.1412 32.6245C14.4795 33.7492 16.1717 34.3657 17.9198 34.3657C19.6679 34.3657 21.3601 33.7492 22.6984 32.6245C28.6926 27.5965 35.8396 20.1807 35.8396 13.3906C35.9408 10.7094 34.9767 8.09708 33.1579 6.12444C31.3392 4.1518 28.8136 2.97915 26.133 2.86269ZM20.7795 30.3397C19.9791 31.0138 18.9662 31.3834 17.9198 31.3834C16.8734 31.3834 15.8605 31.0138 15.0601 30.3397C7.38744 23.902 2.98663 17.7257 2.98663 13.3906C2.88455 11.5011 3.53373 9.64792 4.7926 8.23519C6.05146 6.82247 7.81786 5.96483 9.70656 5.84932C11.5953 5.96483 13.3617 6.82247 14.6205 8.23519C15.8794 9.64792 16.5286 11.5011 16.4265 13.3906C16.4265 13.7866 16.5838 14.1665 16.8639 14.4465C17.1439 14.7266 17.5238 14.8839 17.9198 14.8839C18.3159 14.8839 18.6957 14.7266 18.9757 14.4465C19.2558 14.1665 19.4131 13.7866 19.4131 13.3906C19.311 11.5011 19.9602 9.64792 21.2191 8.23519C22.4779 6.82247 24.2443 5.96483 26.133 5.84932C28.0217 5.96483 29.7881 6.82247 31.047 8.23519C32.3059 9.64792 32.9551 11.5011 32.853 13.3906C32.853 17.7257 28.4522 23.902 20.7795 30.3337V30.3397Z" fill="var(--fill-0, white)"/>
</g>
<defs>
<clipPath id="clip0_0_47">
<rect width="35.8396" height="35.8396" fill="white"/>
</clipPath>
</defs>
</svg>
