<svg preserveAspectRatio="none" width="100%" height="100%" overflow="visible" style="display: block;" viewBox="0 0 30 30" fill="none" xmlns="http://www.w3.org/2000/svg">
<g id="share (1) 1" clip-path="url(#clip0_0_74)">
<path id="Vector" d="M24.1663 18.3338C23.2211 18.3345 22.2904 18.5652 21.4544 19.006C20.6183 19.4468 19.9021 20.0844 19.3675 20.8638L11.2312 17.19C11.8091 15.7945 11.8114 14.2271 11.2375 12.83L19.3625 9.1375C20.1548 10.2834 21.3317 11.1075 22.6795 11.4601C24.0273 11.8127 25.4569 11.6705 26.7089 11.0594C27.9609 10.4482 28.9524 9.40862 29.5036 8.12908C30.0547 6.84954 30.129 5.41484 29.713 4.08522C29.2969 2.75559 28.4181 1.61912 27.2359 0.881944C26.0537 0.144767 24.6465 -0.144285 23.2694 0.0672198C21.8924 0.278724 20.6368 0.976776 19.7303 2.03475C18.8238 3.09273 18.3266 4.44056 18.3287 5.83375C18.334 6.1635 18.3675 6.4922 18.4287 6.81625L9.79125 10.7413C8.96167 9.96402 7.92313 9.44605 6.80322 9.25095C5.6833 9.05586 4.53078 9.19215 3.48726 9.64307C2.44374 10.094 1.55466 10.8399 0.929244 11.7892C0.303833 12.7385 -0.0306687 13.8498 -0.0331664 14.9866C-0.0356641 16.1233 0.293951 17.2361 0.915185 18.1881C1.53642 19.1401 2.42221 19.89 3.46375 20.3455C4.50528 20.801 5.65718 20.9423 6.77795 20.7522C7.89871 20.562 8.93952 20.0486 9.7725 19.275L18.4325 23.185C18.3723 23.5088 18.3393 23.837 18.3337 24.1663C18.3335 25.3202 18.6755 26.4482 19.3164 27.4078C19.9573 28.3673 20.8684 29.1152 21.9344 29.5569C23.0005 29.9986 24.1735 30.1143 25.3053 29.8892C26.4371 29.6642 27.4766 29.1085 28.2926 28.2926C29.1085 27.4766 29.6642 26.4371 29.8892 25.3053C30.1143 24.1736 29.9986 23.0005 29.5569 21.9344C29.1152 20.8684 28.3673 19.9573 27.4078 19.3164C26.4482 18.6755 25.3202 18.3335 24.1663 18.3338ZM24.1663 2.5C24.8257 2.49975 25.4703 2.69506 26.0187 3.06123C26.5671 3.4274 26.9946 3.94797 27.2471 4.55711C27.4996 5.16625 27.5658 5.8366 27.4373 6.48337C27.3089 7.13013 26.9914 7.72427 26.5253 8.19063C26.0591 8.65698 25.4651 8.97462 24.8183 9.10335C24.1716 9.23209 23.5013 9.16614 22.892 8.91385C22.2828 8.66157 21.762 8.23427 21.3957 7.68601C21.0293 7.13775 20.8338 6.49316 20.8337 5.83375C20.8344 4.95 21.1857 4.10263 21.8105 3.47761C22.4353 2.85259 23.2825 2.50099 24.1663 2.5ZM5.83375 18.3338C5.17434 18.334 4.52967 18.1387 3.98128 17.7725C3.43288 17.4064 3.00539 16.8858 2.75287 16.2766C2.50036 15.6675 2.43416 14.9972 2.56265 14.3504C2.69115 13.7036 3.00856 13.1095 3.47474 12.6431C3.94092 12.1768 4.53494 11.8591 5.18166 11.7304C5.82838 11.6017 6.49875 11.6676 7.10798 11.9199C7.71722 12.1722 8.23795 12.5995 8.60432 13.1477C8.9707 13.696 9.16625 14.3406 9.16625 15C9.16526 15.8836 8.81388 16.7308 8.18916 17.3558C7.56445 17.9807 6.71739 18.3324 5.83375 18.3338ZM24.1663 27.5C23.5069 27.5 22.8623 27.3045 22.3141 26.9382C21.7659 26.5718 21.3386 26.0512 21.0863 25.442C20.8339 24.8329 20.7679 24.1626 20.8966 23.5159C21.0252 22.8692 21.3427 22.2752 21.8089 21.8089C22.2752 21.3427 22.8692 21.0252 23.5159 20.8966C24.1626 20.7679 24.8329 20.8339 25.442 21.0863C26.0512 21.3386 26.5718 21.7659 26.9382 22.3141C27.3045 22.8624 27.5 23.5069 27.5 24.1663C27.4993 25.0502 27.1479 25.8978 26.5228 26.5228C25.8978 27.1479 25.0502 27.4993 24.1663 27.5Z" fill="var(--fill-0, white)"/>
</g>
<defs>
<clipPath id="clip0_0_74">
<rect width="30" height="30" fill="white"/>
</clipPath>
</defs>
</svg>
