<svg preserveAspectRatio="none" width="100%" height="100%" overflow="visible" style="display: block;" viewBox="0 0 35.9987 35.9999" fill="none" xmlns="http://www.w3.org/2000/svg">
<g id="sparkles (4) 1" filter="url(#filter0_f_0_72)">
<g clip-path="url(#clip0_0_72)">
<path id="Vector" d="M26.75 31.9999C26.5168 32.0001 26.2889 31.9303 26.0957 31.7998C25.9025 31.6692 25.7529 31.4837 25.6662 31.2672L24.6815 28.802L22.2128 27.7625C22.0011 27.669 21.8217 27.515 21.6971 27.3199C21.5726 27.1247 21.5085 26.8972 21.5128 26.6657C21.5172 26.4343 21.5898 26.2093 21.7216 26.019C21.8534 25.8286 22.0385 25.6815 22.2537 25.596L24.6897 24.6732L25.6662 22.2325C25.756 22.0193 25.9067 21.8372 26.0995 21.7092C26.2923 21.5812 26.5186 21.5129 26.75 21.5129C26.9814 21.5129 27.2077 21.5812 27.4005 21.7092C27.5933 21.8372 27.744 22.0193 27.8338 22.2325L28.815 24.6825L31.265 25.6637C31.4787 25.7531 31.6612 25.9037 31.7896 26.0965C31.918 26.2894 31.9865 26.5159 31.9865 26.7475C31.9865 26.9792 31.918 27.2057 31.7896 27.3985C31.6612 27.5914 31.4787 27.742 31.265 27.8314L28.815 28.8125L27.8338 31.2625C27.7478 31.4799 27.5985 31.6664 27.4053 31.7978C27.212 31.9293 26.9837 31.9997 26.75 31.9999ZM15.6667 28.4999C15.1626 28.5059 14.6702 28.3486 14.263 28.0514C13.8559 27.7543 13.5559 27.3333 13.408 26.8514L11.525 20.9632L5.61817 18.9869C5.14142 18.8275 4.72767 18.5208 4.43667 18.1109C4.14567 17.701 3.99248 17.2093 3.99923 16.7066C4.00598 16.204 4.17232 15.7165 4.47423 15.3146C4.77614 14.9127 5.19798 14.6172 5.67883 14.4707L11.539 12.681L13.513 6.78471C13.6598 6.30039 13.9634 5.8786 14.376 5.58568C14.7887 5.29275 15.287 5.14531 15.7927 5.16654C16.2968 5.16723 16.7871 5.33116 17.1903 5.63379C17.5935 5.93643 17.8878 6.3615 18.0292 6.84538L19.8165 12.6962L25.6848 14.5745C26.1582 14.7333 26.5697 15.0368 26.8612 15.442C27.1527 15.8473 27.3096 16.334 27.3096 16.8332C27.3096 17.3325 27.1527 17.8191 26.8612 18.2244C26.5697 18.6297 26.1582 18.9331 25.6848 19.0919L19.806 20.9725L17.9253 26.8514C17.7774 27.3333 17.4774 27.7543 17.0703 28.0514C16.6631 28.3486 16.1707 28.5059 15.6667 28.4999ZM27.9167 12.1665C27.6566 12.1665 27.404 12.0796 27.1989 11.9196C26.9939 11.7596 26.8482 11.5357 26.785 11.2834L26.3685 9.61504L24.6967 9.16588C24.4454 9.09837 24.2239 8.94879 24.0674 8.74094C23.9109 8.53308 23.8283 8.27887 23.8329 8.01872C23.8375 7.75858 23.9289 7.50742 24.0925 7.30517C24.2562 7.10293 24.4828 6.96121 24.7363 6.90254L26.3697 6.52338L26.785 4.88304C26.8482 4.63078 26.9939 4.40687 27.199 4.24688C27.404 4.08689 27.6566 4 27.9167 4C28.1767 4 28.4293 4.08689 28.6344 4.24688C28.8394 4.40687 28.9851 4.63078 29.0483 4.88304L29.4613 6.53738L31.1157 6.95154C31.3679 7.01477 31.5918 7.16047 31.7518 7.3655C31.9118 7.57053 31.9987 7.82314 31.9987 8.08321C31.9987 8.34328 31.9118 8.59589 31.7518 8.80092C31.5918 9.00595 31.3679 9.15165 31.1157 9.21488L29.4613 9.62904L29.0483 11.2834C28.9851 11.5357 28.8394 11.7596 28.6344 11.9196C28.4294 12.0796 28.1768 12.1665 27.9167 12.1665Z" fill="url(#paint0_linear_0_72)"/>
</g>
</g>
<defs>
<filter id="filter0_f_0_72" x="0" y="-0.00012207" width="36" height="36" filterUnits="userSpaceOnUse" color-interpolation-filters="sRGB">
<feFlood flood-opacity="0" result="BackgroundImageFix"/>
<feBlend mode="normal" in="SourceGraphic" in2="BackgroundImageFix" result="shape"/>
<feGaussianBlur stdDeviation="2" result="effect1_foregroundBlur_0_72"/>
</filter>
<linearGradient id="paint0_linear_0_72" x1="8.24139" y1="6.96968" x2="24.1505" y2="31.9998" gradientUnits="userSpaceOnUse">
<stop stop-color="#C46E5B"/>
<stop offset="0.5" stop-color="#AB5F62"/>
<stop offset="1" stop-color="#9B5686"/>
</linearGradient>
<clipPath id="clip0_0_72">
<rect width="28" height="28" fill="white" transform="translate(4 3.99988)"/>
</clipPath>
</defs>
</svg>
