<svg preserveAspectRatio="none" width="100%" height="100%" overflow="visible" style="display: block;" viewBox="0 0 45.9985 45.9998" fill="none" xmlns="http://www.w3.org/2000/svg">
<g id="sparkles (2) 1" filter="url(#filter0_f_0_44)">
<g clip-path="url(#clip0_0_44)">
<path id="Vector" d="M31.1247 35.9999C30.9081 36.0001 30.6965 35.9353 30.5171 35.8141C30.3377 35.6928 30.1988 35.5206 30.1183 35.3196L29.2039 33.0305L26.9116 32.0652C26.715 31.9784 26.5484 31.8354 26.4327 31.6542C26.3171 31.473 26.2576 31.2617 26.2616 31.0467C26.2657 30.8318 26.3331 30.6229 26.4555 30.4462C26.5779 30.2695 26.7497 30.1328 26.9495 30.0535L29.2115 29.1966L30.1183 26.9302C30.2017 26.7322 30.3416 26.5631 30.5207 26.4443C30.6997 26.3254 30.9098 26.262 31.1247 26.262C31.3396 26.262 31.5497 26.3254 31.7287 26.4443C31.9077 26.5631 32.0477 26.7322 32.1311 26.9302L33.0422 29.2052L35.3172 30.1163C35.5156 30.1993 35.6851 30.3392 35.8043 30.5182C35.9235 30.6973 35.9871 30.9076 35.9871 31.1227C35.9871 31.3378 35.9235 31.5482 35.8043 31.7272C35.6851 31.9063 35.5156 32.0461 35.3172 32.1291L33.0422 33.0402L32.1311 35.3152C32.0512 35.517 31.9126 35.6902 31.7331 35.8123C31.5537 35.9343 31.3417 35.9997 31.1247 35.9999ZM20.833 32.7499C20.365 32.7555 19.9077 32.6094 19.5296 32.3335C19.1516 32.0575 18.873 31.6666 18.7357 31.2191L16.9872 25.7516L11.5023 23.9164C11.0596 23.7684 10.6754 23.4836 10.4052 23.103C10.1349 22.7224 9.9927 22.2657 9.99896 21.799C10.0052 21.3323 10.1597 20.8797 10.44 20.5065C10.7204 20.1333 11.1121 19.8588 11.5586 19.7228L17.0002 18.061L18.8332 12.5858C18.9695 12.1361 19.2514 11.7444 19.6346 11.4724C20.0178 11.2004 20.4805 11.0635 20.95 11.0832C21.4181 11.0839 21.8734 11.2361 22.2478 11.5171C22.6222 11.7981 22.8955 12.1928 23.0268 12.6421L24.6864 18.0751L30.1356 19.8192C30.5751 19.9666 30.9572 20.2484 31.2279 20.6248C31.4986 21.0011 31.6443 21.453 31.6443 21.9166C31.6443 22.3801 31.4986 22.832 31.2279 23.2084C30.9572 23.5847 30.5751 23.8665 30.1356 24.0139L24.6767 25.7602L22.9303 31.2191C22.793 31.6666 22.5145 32.0575 22.1364 32.3335C21.7583 32.6094 21.301 32.7555 20.833 32.7499ZM20.9543 13.2748L18.883 19.2776C18.8284 19.4414 18.7354 19.5898 18.6118 19.7104C18.4882 19.831 18.3375 19.9203 18.1723 19.9709L12.1913 21.7952L18.194 23.872C18.3555 23.9258 18.5021 24.0169 18.6218 24.1379C18.7415 24.2589 18.831 24.4065 18.883 24.5686L20.8005 30.5594L22.783 24.5686C22.8356 24.4041 22.9268 24.2545 23.0489 24.1324C23.171 24.0103 23.3205 23.9191 23.485 23.8666L29.4758 21.9501C29.4835 21.948 29.4908 21.9447 29.4975 21.9404L23.485 19.9666C23.3182 19.9132 23.1667 19.8202 23.0437 19.6955C22.9207 19.5707 22.8297 19.418 22.7787 19.2505L20.9543 13.2748ZM32.208 17.5832C31.9665 17.5832 31.7319 17.5025 31.5415 17.3539C31.3511 17.2053 31.2159 16.9974 31.1572 16.7631L30.7704 15.214L29.218 14.7969C28.9847 14.7342 28.779 14.5953 28.6337 14.4023C28.4883 14.2093 28.4117 13.9732 28.4159 13.7317C28.4202 13.4901 28.505 13.2569 28.657 13.0691C28.809 12.8813 29.0195 12.7497 29.2548 12.6952L30.7715 12.3431L31.1572 10.82C31.2159 10.5857 31.3512 10.3778 31.5416 10.2292C31.732 10.0807 31.9665 10 32.208 10C32.4495 10 32.6841 10.0807 32.8745 10.2292C33.0648 10.3778 33.2001 10.5857 33.2588 10.82L33.6423 12.3561L35.1785 12.7407C35.4128 12.7994 35.6207 12.9347 35.7692 13.1251C35.9178 13.3155 35.9985 13.5501 35.9985 13.7916C35.9985 14.033 35.9178 14.2676 35.7692 14.458C35.6207 14.6484 35.4128 14.7837 35.1785 14.8424L33.6423 15.227L33.2588 16.7631C33.2002 16.9974 33.0649 17.2053 32.8745 17.3539C32.6841 17.5025 32.4495 17.5832 32.208 17.5832Z" fill="var(--fill-0, #C0C0C0)"/>
</g>
</g>
<defs>
<filter id="filter0_f_0_44" x="0" y="-0.000153542" width="46" height="46" filterUnits="userSpaceOnUse" color-interpolation-filters="sRGB">
<feFlood flood-opacity="0" result="BackgroundImageFix"/>
<feBlend mode="normal" in="SourceGraphic" in2="BackgroundImageFix" result="shape"/>
<feGaussianBlur stdDeviation="5" result="effect1_foregroundBlur_0_44"/>
</filter>
<clipPath id="clip0_0_44">
<rect width="26" height="26" fill="white" transform="translate(10 9.99985)"/>
</clipPath>
</defs>
</svg>
