<svg preserveAspectRatio="none" width="100%" height="100%" overflow="visible" style="display: block;" viewBox="0 0 28 28" fill="none" xmlns="http://www.w3.org/2000/svg">
<g id="sparkles (4) 2" clip-path="url(#clip0_0_56)">
<path id="Vector" d="M22.75 28C22.5168 28.0002 22.2889 27.9305 22.0957 27.7999C21.9025 27.6693 21.7529 27.4838 21.6662 27.2673L20.6815 24.8022L18.2128 23.7627C18.0011 23.6691 17.8217 23.5151 17.6971 23.32C17.5726 23.1249 17.5085 22.8973 17.5128 22.6658C17.5172 22.4344 17.5898 22.2094 17.7216 22.0191C17.8534 21.8288 18.0385 21.6816 18.2537 21.5962L20.6897 20.6733L21.6662 18.2327C21.756 18.0194 21.9067 17.8373 22.0995 17.7093C22.2923 17.5813 22.5186 17.513 22.75 17.513C22.9814 17.513 23.2077 17.5813 23.4005 17.7093C23.5933 17.8373 23.744 18.0194 23.8338 18.2327L24.815 20.6827L27.265 21.6638C27.4787 21.7532 27.6612 21.9038 27.7896 22.0967C27.918 22.2895 27.9865 22.516 27.9865 22.7477C27.9865 22.9793 27.918 23.2058 27.7896 23.3987C27.6612 23.5915 27.4787 23.7421 27.265 23.8315L24.815 24.8127L23.8338 27.2627C23.7478 27.48 23.5985 27.6665 23.4053 27.7979C23.212 27.9294 22.9837 27.9998 22.75 28ZM11.6667 24.5C11.1626 24.5061 10.6702 24.3487 10.263 24.0516C9.85588 23.7544 9.55591 23.3334 9.408 22.8515L7.525 16.9633L1.61817 14.987C1.14142 14.8276 0.727671 14.5209 0.436669 14.111C0.145667 13.7011 -0.00752123 13.2094 -0.000769372 12.7068C0.00598248 12.2041 0.172325 11.7167 0.474231 11.3148C0.776138 10.9129 1.19798 10.6173 1.67883 10.4708L7.539 8.68117L9.513 2.78483C9.65977 2.30052 9.96336 1.87873 10.376 1.5858C10.7887 1.29287 11.287 1.14543 11.7927 1.16667C12.2968 1.16735 12.7871 1.33128 13.1903 1.63392C13.5935 1.93655 13.8878 2.36162 14.0292 2.8455L15.8165 8.69633L21.6848 10.5747C22.1582 10.7334 22.5697 11.0369 22.8612 11.4422C23.1527 11.8475 23.3096 12.3341 23.3096 12.8333C23.3096 13.3326 23.1527 13.8192 22.8612 14.2245C22.5697 14.6298 22.1582 14.9332 21.6848 15.092L15.806 16.9727L13.9253 22.8515C13.7774 23.3334 13.4774 23.7544 13.0703 24.0516C12.6631 24.3487 12.1707 24.5061 11.6667 24.5ZM23.9167 8.16667C23.6566 8.16666 23.404 8.07975 23.1989 7.91973C22.9939 7.75972 22.8482 7.53579 22.785 7.2835L22.3685 5.61517L20.6967 5.166C20.4454 5.09849 20.2239 4.94891 20.0674 4.74106C19.9109 4.5332 19.8283 4.279 19.8329 4.01885C19.8375 3.7587 19.9289 3.50754 20.0925 3.30529C20.2562 3.10305 20.4828 2.96133 20.7363 2.90267L22.3697 2.5235L22.785 0.883166C22.8482 0.630901 22.9939 0.406993 23.199 0.247005C23.404 0.0870168 23.6566 0.000121984 23.9167 0.000121984C24.1767 0.000121984 24.4293 0.0870168 24.6344 0.247005C24.8394 0.406993 24.9851 0.630901 25.0483 0.883166L25.4613 2.5375L27.1157 2.95167C27.3679 3.01489 27.5918 3.16059 27.7518 3.36562C27.9118 3.57065 27.9987 3.82327 27.9987 4.08333C27.9987 4.3434 27.9118 4.59601 27.7518 4.80104C27.5918 5.00608 27.3679 5.15178 27.1157 5.215L25.4613 5.62917L25.0483 7.2835C24.9851 7.53579 24.8394 7.75972 24.6344 7.91973C24.4294 8.07975 24.1768 8.16666 23.9167 8.16667Z" fill="url(#paint0_linear_0_56)"/>
</g>
<defs>
<linearGradient id="paint0_linear_0_56" x1="4.24139" y1="2.96981" x2="20.1505" y2="27.9999" gradientUnits="userSpaceOnUse">
<stop stop-color="#C46E5B"/>
<stop offset="0.5" stop-color="#AB5F62"/>
<stop offset="1" stop-color="#9B5686"/>
</linearGradient>
<clipPath id="clip0_0_56">
<rect width="28" height="28" fill="white"/>
</clipPath>
</defs>
</svg>
