<svg preserveAspectRatio="none" width="100%" height="100%" overflow="visible" style="display: block;" viewBox="0 0 26 24" fill="none" xmlns="http://www.w3.org/2000/svg">
<g id="folder-open 1" clip-path="url(#clip0_0_34)">
<path id="Vector" d="M25.4508 11.476C24.9232 10.7948 24.1139 10.4031 23.2299 10.4031H22.75V8.33333C22.75 5.46146 20.3201 3.125 17.3333 3.125H11.856C11.6892 3.125 11.5202 3.08646 11.3717 3.01562L7.95383 1.37187C7.50533 1.15625 7.00267 1.04271 6.5 1.04271H4.33333C1.9435 1.04167 -3.8743e-07 2.91042 -3.8743e-07 5.20833V18.75C-3.8743e-07 21.6219 2.42992 23.9583 5.41667 23.9583H19.0212C21.4327 23.9583 23.517 22.4667 24.2233 20.201L25.883 13.8302C26.1365 13.0156 25.9783 12.1583 25.4508 11.476ZM2.16667 18.75V5.20833C2.16667 4.05937 3.13842 3.125 4.33333 3.125H6.5C6.66683 3.125 6.83583 3.16354 6.98425 3.23437L10.4022 4.87812C10.8507 5.09375 11.3533 5.20729 11.856 5.20729H17.3333C19.1252 5.20729 20.5833 6.60938 20.5833 8.33229V10.4021H9.33292C7.49125 10.4021 5.84675 11.526 5.22817 13.2354L2.85567 20.6708C2.4245 20.1406 2.16667 19.474 2.16667 18.75ZM23.7943 13.2781L22.1347 19.6479C21.7187 20.9802 20.4674 21.875 19.0212 21.875H5.41667C5.19133 21.875 4.97142 21.8531 4.75908 21.8104L7.28758 13.8844C7.58983 13.0479 8.41317 12.4865 9.334 12.4865H23.231C23.4932 12.4865 23.6459 12.6323 23.7131 12.7198C23.7803 12.8073 23.8821 12.9896 23.7943 13.2781Z" fill="var(--fill-0, #C0C0C0)"/>
</g>
<defs>
<clipPath id="clip0_0_34">
<rect width="26" height="24" fill="white"/>
</clipPath>
</defs>
</svg>
