<svg preserveAspectRatio="none" width="100%" height="100%" overflow="visible" style="display: block;" viewBox="0 0 43 43" fill="none" xmlns="http://www.w3.org/2000/svg">
<g id="grok 1" clip-path="url(#clip0_0_49)">
<path id="Vector" fill-rule="evenodd" clip-rule="evenodd" d="M16.6088 27.3946L30.9027 16.8291C31.6032 16.3095 32.6047 16.512 32.9398 17.3165C34.6956 21.5609 33.9109 26.66 30.4135 30.1609C26.918 33.6618 22.0518 34.4287 17.6049 32.68L12.7477 34.9321C19.7155 39.6998 28.1757 38.5208 33.463 33.2247C37.6572 29.025 38.9562 23.3006 37.7415 18.1388L37.7522 18.1514C35.991 10.569 38.1858 7.53754 42.6793 1.34017C42.7868 1.19325 42.8943 1.04633 43 0.895833L37.0857 6.81729V6.79938L16.6034 27.3982M13.6579 29.962C8.65554 25.1783 9.51912 17.7769 13.7851 13.5074C16.9402 10.3487 22.111 9.05867 26.6242 10.9543L31.4706 8.71467C30.4633 7.97366 29.3612 7.37107 28.1937 6.923C25.2585 5.72168 22.0337 5.41512 18.9248 6.04188C15.8159 6.66863 12.9617 8.20071 10.7213 10.4454C6.18304 14.9891 4.75508 21.9766 7.20608 27.9393C9.03717 32.3951 6.03613 35.5467 3.01358 38.7287C1.94038 39.8574 0.865375 40.9844 0 42.1776L13.6525 29.9674" fill="var(--fill-0, #121212)"/>
</g>
<defs>
<clipPath id="clip0_0_49">
<rect width="43" height="43" fill="white"/>
</clipPath>
</defs>
</svg>
