<svg preserveAspectRatio="none" width="100%" height="100%" overflow="visible" style="display: block;" viewBox="0 0 38 38" fill="none" xmlns="http://www.w3.org/2000/svg">
<g id="Group 12021">
<circle id="Ellipse 200" cx="19" cy="19" r="19" fill="var(--fill-0, #2D2D2D)"/>
<g id="plus-small 1">
<path id="Vector" d="M22.1325 13.6642L18.9977 16.799L15.8628 13.6642C15.655 13.4563 15.3731 13.3395 15.0791 13.3395C14.7852 13.3395 14.5032 13.4563 14.2954 13.6642C14.0875 13.872 13.9708 14.1539 13.9708 14.4479C13.9708 14.7418 14.0875 15.0237 14.2954 15.2316L17.4302 18.3664L14.2954 21.5013C14.0875 21.7091 13.9708 21.991 13.9708 22.285C13.9708 22.5789 14.0875 22.8608 14.2954 23.0687C14.5032 23.2765 14.7852 23.3933 15.0791 23.3933C15.3731 23.3933 15.655 23.2765 15.8628 23.0687L18.9977 19.9339L22.1325 23.0687C22.3403 23.2765 22.6223 23.3933 22.9162 23.3933C23.2102 23.3933 23.4921 23.2765 23.6999 23.0687C23.9078 22.8608 24.0245 22.5789 24.0245 22.285C24.0245 21.991 23.9078 21.7091 23.6999 21.5013L20.5651 18.3664L23.6999 15.2316C23.9078 15.0237 24.0245 14.7418 24.0245 14.4479C24.0245 14.1539 23.9078 13.872 23.6999 13.6642C23.4921 13.4563 23.2102 13.3395 22.9162 13.3395C22.6223 13.3395 22.3403 13.4563 22.1325 13.6642Z" fill="var(--fill-0, white)"/>
</g>
</g>
</svg>
