<svg preserveAspectRatio="none" width="100%" height="100%" overflow="visible" style="display: block;" viewBox="0 0 39.2674 39.2674" fill="none" xmlns="http://www.w3.org/2000/svg">
<g id="link-alt 1" clip-path="url(#clip0_0_54)">
<path id="Vector" d="M13.7665 26.4404C12.7947 25.6044 12.6856 24.1363 13.5232 23.1659C14.3606 22.194 15.8257 22.0851 16.7977 22.9226C18.9969 24.8175 22.5695 24.5536 24.4643 22.3528L31.5942 14.0783C33.5506 11.8077 33.295 8.36802 31.0244 6.41157C28.7539 4.45513 25.3142 4.71074 23.3578 6.98131C22.5203 7.95322 21.0552 8.0621 20.0833 7.22464C19.1115 6.38873 19.0024 4.92054 19.8399 3.95017C23.4669 -0.260802 29.846 -0.734853 34.0556 2.89377C38.2667 6.52227 38.7405 12.8983 35.112 17.1094L27.9822 25.384C26.1672 27.4903 23.6664 28.6604 21.0928 28.8516C18.5192 29.0429 15.8712 28.2539 13.7665 26.4404ZM12.5354 38.7846C15.109 38.5934 17.6097 37.4218 19.4248 35.317C20.2623 34.3466 20.1532 32.8784 19.1814 32.0425C18.2095 31.205 16.7444 31.3139 15.907 32.2858C13.9491 34.5581 10.5093 34.8121 8.24028 32.8556C5.96971 30.8991 5.7141 27.4594 7.67055 25.1889L14.7604 16.9608C16.7182 14.6885 20.1579 14.4329 22.427 16.391C23.399 17.2285 24.8641 17.1196 25.7015 16.1477C26.5391 15.1773 26.43 13.7091 25.4582 12.8732C21.2471 9.24471 14.8711 9.71853 11.2425 13.9296L4.1512 22.1579C0.522691 26.3689 0.996512 32.745 5.2076 36.3735C7.31397 38.1885 9.96183 38.9759 12.5354 38.7846Z" fill="var(--fill-0, white)"/>
</g>
<defs>
<clipPath id="clip0_0_54">
<rect width="39.2674" height="39.2674" fill="white"/>
</clipPath>
</defs>
</svg>
