<svg preserveAspectRatio="none" width="100%" height="100%" overflow="visible" style="display: block;" viewBox="0 0 51.2248 51.2248" fill="none" xmlns="http://www.w3.org/2000/svg">
<g id="plus-small 1">
<path id="Vector" d="M36.2842 23.478H27.7467V14.9406C27.7467 14.3745 27.5219 13.8316 27.1216 13.4313C26.7213 13.0311 26.1785 12.8062 25.6124 12.8062C25.0463 12.8062 24.5034 13.0311 24.1032 13.4313C23.7029 13.8316 23.478 14.3745 23.478 14.9406V23.478H14.9406C14.3745 23.478 13.8316 23.7029 13.4313 24.1032C13.0311 24.5034 12.8062 25.0463 12.8062 25.6124C12.8062 26.1785 13.0311 26.7213 13.4313 27.1216C13.8316 27.5219 14.3745 27.7467 14.9406 27.7467H23.478V36.2842C23.478 36.8503 23.7029 37.3932 24.1032 37.7934C24.5034 38.1937 25.0463 38.4186 25.6124 38.4186C26.1785 38.4186 26.7213 38.1937 27.1216 37.7934C27.5219 37.3932 27.7467 36.8503 27.7467 36.2842V27.7467H36.2842C36.8503 27.7467 37.3932 27.5219 37.7934 27.1216C38.1937 26.7213 38.4186 26.1785 38.4186 25.6124C38.4186 25.0463 38.1937 24.5034 37.7934 24.1032C37.3932 23.7029 36.8503 23.478 36.2842 23.478Z" fill="var(--fill-0, white)"/>
</g>
</svg>
